<mxfile host="app.diagrams.net" modified="2023-06-14T18:42:38.859Z" agent="Mozilla/5.0 (Windows NT 10.0; Win64; x64; rv:109.0) Gecko/20100101 Firefox/114.0" version="21.4.0" etag="xoLnyCcYjA9zYkOccTdk" type="github">
  <diagram name="Page-1" id="1QxMOZWRaGK2rKwOeCCK">
    <mxGraphModel>
      <root>
        <mxCell id="0" />
        <mxCell id="1" parent="0" />
      </root>
    </mxGraphModel>
  </diagram>
</mxfile>
